<svg width="56" height="52" viewBox="0 0 56 52" fill="none" xmlns="http://www.w3.org/2000/svg">
<path d="M18.244 25H2.07997V0.880007H17.416C19.168 0.880007 20.62 1.10801 21.772 1.56401C22.924 1.99601 23.788 2.64401 24.364 3.50801C24.94 4.37201 25.228 5.44001 25.228 6.71201C25.228 8.24801 24.772 9.52001 23.86 10.528C22.972 11.536 21.424 12.088 19.216 12.184V12.544C21.64 12.64 23.428 13.204 24.58 14.236C25.756 15.268 26.344 16.624 26.344 18.304C26.344 19.648 26.068 20.824 25.516 21.832C24.964 22.84 24.088 23.62 22.888 24.172C21.712 24.724 20.164 25 18.244 25ZM8.81197 15.568V18.916H17.38C18.196 18.916 18.748 18.808 19.036 18.592C19.348 18.352 19.504 17.896 19.504 17.224C19.504 16.552 19.36 16.108 19.072 15.892C18.784 15.676 18.22 15.568 17.38 15.568H8.81197ZM8.81197 6.96401V10.024H16.696C17.392 10.024 17.86 9.91601 18.1 9.70001C18.34 9.46001 18.46 9.06401 18.46 8.51201C18.46 7.96001 18.304 7.56401 17.992 7.32401C17.704 7.08401 17.212 6.96401 16.516 6.96401H8.81197Z" fill="#28A383"/>
<path d="M40.24 25.36C36.544 25.36 33.7 24.796 31.708 23.668C29.716 22.54 28.72 20.728 28.72 18.232C28.72 16.384 29.284 14.992 30.412 14.056C31.54 13.096 32.992 12.556 34.768 12.436V11.968C33.112 11.824 31.876 11.272 31.06 10.312C30.244 9.32801 29.836 8.17601 29.836 6.85601C29.836 4.57601 30.712 2.93201 32.464 1.92401C34.216 0.892007 36.676 0.376007 39.844 0.376007H43.624V6.53201H38.872C38.104 6.53201 37.528 6.62801 37.144 6.82001C36.784 7.01201 36.604 7.49201 36.604 8.26001C36.604 9.00401 36.784 9.47201 37.144 9.66401C37.504 9.83201 38.02 9.91601 38.692 9.91601H55.108V15.46H37.792C37.12 15.46 36.58 15.58 36.172 15.82C35.788 16.036 35.596 16.54 35.596 17.332C35.596 17.812 35.716 18.196 35.956 18.484C36.22 18.748 36.7 18.94 37.396 19.06C38.116 19.156 39.148 19.204 40.492 19.204C41.812 19.204 42.784 19.156 43.408 19.06C44.032 18.94 44.44 18.688 44.632 18.304C44.848 17.896 44.956 17.272 44.956 16.432V6.85601H51.616V16.072C51.616 17.944 51.28 19.576 50.608 20.968C49.936 22.36 48.772 23.44 47.116 24.208C45.484 24.976 43.192 25.36 40.24 25.36Z" fill="#28A383"/>
<path d="M14.04 51.36C11.256 51.36 8.86797 50.856 6.87597 49.848C4.88397 48.816 3.35997 47.376 2.30397 45.528C1.24797 43.656 0.719971 41.46 0.719971 38.94C0.719971 36.42 1.24797 34.236 2.30397 32.388C3.35997 30.516 4.88397 29.076 6.87597 28.068C8.86797 27.036 11.256 26.52 14.04 26.52C16.752 26.52 19.068 26.928 20.988 27.744C22.932 28.56 24.42 29.736 25.452 31.272C26.484 32.808 27 34.656 27 36.816V37.428H19.44V36.816C19.44 35.448 19.056 34.476 18.288 33.9C17.52 33.3 16.14 33 14.148 33C12.516 33 11.244 33.168 10.332 33.504C9.44397 33.816 8.81997 34.404 8.45997 35.268C8.09997 36.108 7.91997 37.332 7.91997 38.94C7.91997 40.524 8.09997 41.748 8.45997 42.612C8.81997 43.476 9.44397 44.076 10.332 44.412C11.244 44.724 12.516 44.88 14.148 44.88C16.14 44.88 17.52 44.592 18.288 44.016C19.056 43.416 19.44 42.432 19.44 41.064V40.452H27V41.064C27 43.2 26.484 45.048 25.452 46.608C24.42 48.144 22.932 49.32 20.988 50.136C19.068 50.952 16.752 51.36 14.04 51.36Z" fill="#28A383"/>
<path d="M42.076 51.36C39.292 51.36 36.892 50.856 34.876 49.848C32.884 48.816 31.36 47.376 30.304 45.528C29.248 43.656 28.72 41.46 28.72 38.94C28.72 36.42 29.248 34.236 30.304 32.388C31.36 30.516 32.884 29.076 34.876 28.068C36.892 27.036 39.292 26.52 42.076 26.52C44.956 26.52 47.392 27.036 49.384 28.068C51.4 29.076 52.936 30.516 53.992 32.388C55.048 34.236 55.576 36.42 55.576 38.94C55.576 41.46 55.048 43.656 53.992 45.528C52.936 47.376 51.4 48.816 49.384 49.848C47.392 50.856 44.956 51.36 42.076 51.36ZM42.076 44.88C43.708 44.88 44.98 44.724 45.892 44.412C46.804 44.076 47.44 43.476 47.8 42.612C48.184 41.748 48.376 40.524 48.376 38.94C48.376 37.332 48.184 36.108 47.8 35.268C47.44 34.404 46.804 33.816 45.892 33.504C44.98 33.168 43.708 33 42.076 33C40.444 33 39.184 33.168 38.296 33.504C37.408 33.816 36.784 34.404 36.424 35.268C36.088 36.108 35.92 37.332 35.92 38.94C35.92 40.524 36.088 41.748 36.424 42.612C36.784 43.476 37.408 44.076 38.296 44.412C39.184 44.724 40.444 44.88 42.076 44.88Z" fill="#28A383"/>
</svg>
